# xmcd CD database file
#
# Track frame offsets:
#	150
#	17729
#	35374
#	51185
#	73658
#	94319
#	115299
#	136342
#	160344
#	180848
#	197276
#	211374
#	229385
#
# Disc length: 3423 seconds
#
# Revision: 1
# Processed by: cddbd v1.5.2PL0 Copyright (c) Steve Scherf et al.
# Submitted via: CDex 1.70beta2
#
DISCID=af0d5d0d
DTITLE=Willis Earl Beal  - Nobody Knows.
DYEAR=2013
DGENRE=Blues
TTITLE0=Wavering Lines
TTITLE1=Coming Through
TTITLE2=Everything unwinds.
TTITLE3=Burning Bridges
TTITLE4=Disintergrating
TTITLE5=Too Dry To Cry
TTITLE6=What's the deal?
TTITLE7=Ain't Got No Love
TTITLE8=White Noise
TTITLE9=Hole In The Roof
TTITLE10=Blue Escape
TTITLE11=Nobody knows.
TTITLE12=The Flow
EXTD=YEAR: 2013
EXTT0=
EXTT1=
EXTT2=
EXTT3=
EXTT4=
EXTT5=
EXTT6=
EXTT7=
EXTT8=
EXTT9=
EXTT10=
EXTT11=
EXTT12=
PLAYORDER=
